HIERARCHY
ROOT Hips
{
	OFFSET 0.000000 0.000000 0.000000
	CHANNELS 6 Xposition Yposition Zposition Zrotation Yrotation Xrotation 
	JOINT LHipJoint
	{
		OFFSET 0.000000 0.000000 0.000000
		CHANNELS 3 Zrotation Yrotation Xrotation
		JOINT LeftUpLeg
		{
			OFFSET 1.363060 -1.794630 0.839290
			CHANNELS 3 Zrotation Yrotation Xrotation
			JOINT LeftLeg
			{
				OFFSET 2.448110 -6.726130 0.000000
				CHANNELS 3 Zrotation Yrotation Xrotation
				JOINT LeftFoot
				{
					OFFSET 2.562200 -7.039590 0.000000
					CHANNELS 3 Zrotation Yrotation Xrotation
					JOINT LeftToeBase
					{
						OFFSET 0.157640 -0.433110 2.322550
						CHANNELS 3 Zrotation Yrotation Xrotation
						End Site
						{
							OFFSET 0.000000 0.000000 0.000000
						}
					}
				}
			}
		}
	}
	JOINT RHipJoint
	{
		OFFSET 0.000000 0.000000 0.000000
		CHANNELS 3 Zrotation Yrotation Xrotation
		JOINT RightUpLeg
		{
			OFFSET -1.305520 -1.794630 0.839290
			CHANNELS 3 Zrotation Yrotation Xrotation
			JOINT RightLeg
			{
				OFFSET -2.542530 -6.985550 0.000000
				CHANNELS 3 Zrotation Yrotation Xrotation
				JOINT RightFoot
				{
					OFFSET -2.568260 -7.056230 0.000000
					CHANNELS 3 Zrotation Yrotation Xrotation
					JOINT RightToeBase
					{
						OFFSET -0.164730 -0.452590 2.363150
						CHANNELS 3 Zrotation Yrotation Xrotation
						End Site
						{
							OFFSET 0.000000 0.000000 0.000000
						}
					}
				}
			}
		}
	}
	JOINT LowerBack
	{
		OFFSET 0.000000 0.000000 0.000000
		CHANNELS 3 Zrotation Yrotation Xrotation
		JOINT Spine
		{
			OFFSET 0.028270 2.035590 -0.193380
			CHANNELS 3 Zrotation Yrotation Xrotation
			JOINT Spine1
			{
				OFFSET 0.056720 2.048850 -0.042750
				CHANNELS 3 Zrotation Yrotation Xrotation
				JOINT Neck
				{
					OFFSET 0.000000 0.000000 0.000000
					CHANNELS 3 Zrotation Yrotation Xrotation
					JOINT Neck1
					{
						OFFSET -0.054170 1.746240 0.172020
						CHANNELS 3 Zrotation Yrotation Xrotation
						JOINT Head
						{
							OFFSET 0.104070 1.761360 -0.123970
							CHANNELS 3 Zrotation Yrotation Xrotation
							End Site
							{
								OFFSET 0.000000 0.000000 0.000000
							}
						}
					}
				}
				JOINT LeftShoulder
				{
					OFFSET 0.000000 0.000000 0.000000
					CHANNELS 3 Zrotation Yrotation Xrotation
					JOINT LeftArm
					{
						OFFSET 3.362410 1.200890 -0.311210
						CHANNELS 3 Zrotation Yrotation Xrotation
						JOINT LeftForeArm
						{
							OFFSET 4.983000 -0.000000 -0.000000
							CHANNELS 3 Zrotation Yrotation Xrotation
							JOINT LeftHand
							{
								OFFSET 3.483560 -0.000000 -0.000000
								CHANNELS 3 Zrotation Yrotation Xrotation
								JOINT LeftFingerBase
								{
									OFFSET 0.000000 0.000000 0.000000
									CHANNELS 3 Zrotation Yrotation Xrotation
									JOINT LeftHandIndex1
									{
										OFFSET 0.715260 -0.000000 -0.000000
										CHANNELS 3 Zrotation Yrotation Xrotation
										End Site
										{
											OFFSET 0.000000 0.000000 0.000000
										}
									}
								}
								JOINT LThumb
								{
									OFFSET 0.000000 0.000000 0.000000
									CHANNELS 3 Zrotation Yrotation Xrotation
									End Site
									{
										OFFSET 0.000000 0.000000 0.000000
									}
								}
							}
						}
					}
				}
				JOINT RightShoulder
				{
					OFFSET 0.000000 0.000000 0.000000
					CHANNELS 3 Zrotation Yrotation Xrotation
					JOINT RightArm
					{
						OFFSET -3.136600 1.374050 -0.404650
						CHANNELS 3 Zrotation Yrotation Xrotation
						JOINT RightForeArm
						{
							OFFSET -5.241900 -0.000000 -0.000000
							CHANNELS 3 Zrotation Yrotation Xrotation
							JOINT RightHand
							{
								OFFSET -3.444170 -0.000000 -0.000000
								CHANNELS 3 Zrotation Yrotation Xrotation
								JOINT RightFingerBase
								{
									OFFSET 0.000000 0.000000 0.000000
									CHANNELS 3 Zrotation Yrotation Xrotation
									JOINT RightHandIndex1
									{
										OFFSET -0.622530 -0.000000 -0.000000
										CHANNELS 3 Zrotation Yrotation Xrotation
										End Site
										{
											OFFSET 0.000000 0.000000 0.000000
										}
									}
								}
								JOINT RThumb
								{
									OFFSET 0.000000 0.000000 0.000000
									CHANNELS 3 Zrotation Yrotation Xrotation
									End Site
									{
										OFFSET 0.000000 0.000000 0.000000
									}
								}
							}
						}
					}
				}
			}
		}
	}
}
MOTION
Frames: 6
Frame Time: 0.033333
-0.096420 23.830286 -0.096420 -1.043719 2.736279 11.057509 -13.215997 6.324378 -0.358586 -4.475199 -3.919473 -17.032818 -1.975458 3.647446 4.808318 0.708143 13.856450 32.200292 0.000000 0.000000 0.000000 13.239148 -10.363275 -2.266424 8.572896 1.802274 -19.198710 4.449397 -9.064763 7.602959 -1.112709 -18.015305 31.266604 0.000000 0.000000 0.000000 0.053899 2.098483 11.605979 2.127852 1.939544 -2.584051 -3.620097 2.829991 -9.991054 1.203033 0.327311 1.916777 3.698214 -0.247482 6.246108 0.000000 0.000000 0.000000 4.512935 9.444910 8.123913 -68.005676 -6.697383 20.959011 -43.297873 -55.487500 0.595706 -2.036121 -12.869920 0.295463 -2.035445 -12.881923 0.000000 0.000000 0.000000 0.000000 0.000000 0.000000 0.000000 -8.622123 -15.684165 0.905176 77.091161 4.440605 14.328532 168.116346 72.122121 -179.847436 -3.390213 6.623546 0.074852 -3.406313 6.619227 0.000000 0.000000 0.000000 0.000000 0.000000 0.000000 0.000000 
-0.093834 23.738097 -0.059888 -1.046859 2.437102 11.012295 -12.562138 6.789638 -0.459427 -5.333588 -4.187744 -16.979905 -1.804238 3.808972 5.555765 0.510636 12.995119 30.096810 0.000000 0.000000 0.000000 12.532848 -10.722623 -2.296982 9.351307 2.032314 -18.831941 4.604854 -8.994750 7.892449 -0.935604 -17.069126 29.198974 0.000000 0.000000 0.000000 0.005941 2.105311 11.582531 2.078536 1.909005 -2.517337 -3.180904 2.815771 -10.458755 0.862488 0.353801 2.304753 3.665596 -0.246191 6.244209 0.000000 0.000000 0.000000 4.077827 9.924593 8.229688 -67.972474 -6.466447 20.705821 -43.713910 -54.421292 0.582729 -2.079060 -12.726622 0.289047 -2.078341 -12.738412 0.000000 0.000000 0.000000 0.000000 0.000000 0.000000 0.000000 -7.469869 -15.922229 1.104439 74.976613 2.786986 16.404413 170.133801 73.886856 -179.812951 -3.458398 7.645214 0.091824 -3.478145 7.639870 0.000000 0.000000 0.000000 0.000000 0.000000 0.000000 0.000000 
-0.091194 23.634820 -0.022420 -1.047812 2.129355 10.950620 -11.827253 7.327630 -0.569390 -6.316416 -4.491022 -16.900300 -1.595255 3.973204 6.382579 0.321268 12.013187 27.713164 0.000000 0.000000 0.000000 11.747848 -11.124307 -2.354810 10.224508 2.266436 -18.402887 4.756841 -8.929460 8.238646 -0.763373 -16.005632 26.834176 0.000000 0.000000 0.000000 -0.040830 2.075301 11.570685 2.041431 1.844474 -2.468175 -2.770689 2.774838 -10.846112 0.514515 0.375732 2.659965 3.650320 -0.243891 6.222549 0.000000 0.000000 0.000000 3.658197 10.502332 8.295046 -67.923961 -6.241948 20.451492 -44.080728 -53.375445 0.569545 -2.114143 -12.582497 0.282525 -2.113352 -12.594056 0.000000 0.000000 0.000000 0.000000 0.000000 0.000000 0.000000 -6.356891 -16.166000 1.414515 72.883730 1.451937 18.504092 172.396262 75.994302 -179.774965 -3.410052 8.640365 0.110522 -3.433206 8.634511 0.000000 0.000000 0.000000 0.000000 0.000000 0.000000 0.000000 
-0.088259 23.520467 0.016344 -1.044922 1.818879 10.868859 -11.015704 7.945249 -0.688725 -7.425449 -4.827013 -16.789492 -1.343198 4.139691 7.297571 0.146343 10.908846 25.044485 0.000000 0.000000 0.000000 10.889736 -11.570979 -2.440992 11.183955 2.494409 -17.907695 4.904902 -8.871244 8.642443 -0.602279 -14.825347 24.164398 0.000000 0.000000 0.000000 -0.086601 2.009347 11.573842 2.017142 1.746532 -2.435976 -2.394384 2.706756 -11.140587 0.163687 0.392668 2.968525 3.652512 -0.240547 6.181291 0.000000 0.000000 0.000000 3.254750 11.171638 8.312334 -67.860185 -6.031995 20.196249 -44.402608 -52.350495 0.556146 -2.142382 -12.437852 0.275895 -2.141494 -12.449163 0.000000 0.000000 0.000000 0.000000 0.000000 0.000000 0.000000 -5.291743 -16.417537 1.853755 70.845020 0.465953 20.545648 174.980996 78.454751 -179.735296 -3.235438 9.563641 0.130064 -3.261252 9.557986 0.000000 0.000000 0.000000 0.000000 0.000000 0.000000 0.000000 
-0.084819 23.395454 0.056156 -1.036547 1.512860 10.762908 -10.136955 8.646984 -0.817433 -8.655638 -5.190527 -16.642743 -1.044176 4.305985 8.303097 -0.007857 9.687640 22.104084 0.000000 0.000000 0.000000 9.968872 -12.064236 -2.555288 12.214912 2.703465 -17.345220 5.050593 -8.821841 9.097870 -0.457733 -13.536236 21.199306 0.000000 0.000000 0.000000 -0.131194 1.910369 11.595956 2.005745 1.617628 -2.418674 -2.056997 2.612415 -11.336696 -0.184471 0.403970 3.220304 3.671751 -0.236224 6.122139 0.000000 0.000000 0.000000 2.867578 11.919580 8.277198 -67.781617 -5.843535 19.939911 -44.684960 -51.345375 0.542482 -2.164938 -12.292855 0.269130 -2.163924 -12.303906 0.000000 0.000000 0.000000 0.000000 0.000000 0.000000 0.000000 -4.283204 -16.682349 2.428773 68.895300 -0.153426 22.424169 177.957548 81.283089 -179.696141 -2.933278 10.369115 0.149399 -2.960451 10.364451 0.000000 0.000000 0.000000 0.000000 0.000000 0.000000 0.000000 
-0.079090 23.261314 0.098390 -1.055582 1.227469 10.454452 -9.182668 9.530046 -0.812840 -9.958105 -5.619198 -16.491077 -0.701419 4.483464 9.522329 -0.125959 8.339933 18.917132 0.000000 0.000000 0.000000 8.833714 -12.820956 -2.715045 13.825179 3.218117 -16.799931 4.366580 -8.854421 10.396488 -0.267256 -12.076408 17.996460 0.000000 0.000000 0.000000 -0.043938 1.775424 11.299700 2.089974 1.499849 -2.255797 -1.849694 2.501785 -11.155127 -0.119722 0.352314 2.766086 3.442745 -0.200943 5.686352 0.000000 0.000000 0.000000 2.353136 12.188114 8.375751 -67.670836 -5.600318 19.276724 -44.801360 -50.407774 0.519180 -2.149329 -12.097852 0.257564 -2.147462 -12.108488 0.000000 0.000000 0.000000 0.000000 0.000000 0.000000 0.000000 -3.663409 -16.400246 3.279716 67.666742 -0.333299 23.287382 -179.501576 83.913703 -179.678717 -2.672490 10.856876 0.157939 -2.700723 10.853073 0.000000 0.000000 0.000000 0.000000 0.000000 0.000000 0.000000 
